<svg width="350" height="100" viewBox="0 0 350 100" fill="none" xmlns="http://www.w3.org/2000/svg">
<path d="M0 0H318C335.673 0 350 14.3269 350 32V100H0V0Z" fill="#F2F2F2"/>
<path d="M166.263 78.1683L147.646 53.713V78.1683H134.156V22.7889H147.646V47.0864L166.105 22.7889H181.962L160.504 49.9264L182.751 78.1683H166.263Z" fill="#333333"/>
<path d="M202.651 33.5965V44.7986H220.717V55.2119H202.651V67.3606H223.083V78.1683H189.162V22.7889H223.083V33.5965H202.651Z" fill="#333333"/>
<path d="M279.332 22.7889L260.162 59.8662V78.1683H246.672V59.8662L227.502 22.7889H242.807L253.535 45.982L264.185 22.7889H279.332Z" fill="#333333"/>
<path d="M304.805 78.7205C300.755 78.7205 297.126 78.0631 293.918 76.7483C290.71 75.4335 288.133 73.4876 286.187 70.9106C284.294 68.3336 283.295 65.2306 283.189 61.6018H297.547C297.757 63.6529 298.467 65.2306 299.677 66.3351C300.887 67.3869 302.464 67.9128 304.41 67.9128C306.409 67.9128 307.986 67.4658 309.143 66.5717C310.301 65.6251 310.879 64.3366 310.879 62.7062C310.879 61.3388 310.406 60.2081 309.459 59.314C308.565 58.42 307.434 57.6837 306.067 57.1052C304.752 56.5267 302.859 55.8692 300.387 55.133C296.811 54.0285 293.892 52.9241 291.63 51.8197C289.369 50.7152 287.423 49.0849 285.793 46.9286C284.162 44.7723 283.347 41.9587 283.347 38.4876C283.347 33.3336 285.214 29.3103 288.948 26.4177C292.682 23.4726 297.547 22 303.542 22C309.643 22 314.56 23.4726 318.295 26.4177C322.029 29.3103 324.027 33.3599 324.29 38.5665H309.696C309.591 36.7784 308.933 35.3847 307.724 34.3854C306.514 33.3336 304.962 32.8077 303.069 32.8077C301.439 32.8077 300.124 33.2547 299.125 34.1488C298.125 34.9902 297.626 36.2261 297.626 37.8565C297.626 39.6446 298.467 41.0383 300.15 42.0376C301.833 43.0368 304.463 44.1149 308.039 45.272C311.615 46.4816 314.508 47.6386 316.717 48.743C318.978 49.8475 320.924 51.4515 322.554 53.5552C324.185 55.6589 325 58.3674 325 61.6807C325 64.8362 324.185 67.7025 322.554 70.2795C320.977 72.8565 318.663 74.9076 315.612 76.4327C312.562 77.9579 308.959 78.7205 304.805 78.7205Z" fill="#333333"/>
<path d="M104.125 23L89.6882 78.3794H73.3584L64.5229 41.9331L55.3719 78.3794H39.0421L25 23H39.4365L47.4042 63.3118L57.2652 23H72.0961L81.5627 63.3118L89.6093 23H104.125Z" fill="#56CCF2"/>
<path d="M124.38 23V78.3794H110.89V23H124.38Z" fill="#56CCF2"/>
</svg>
